<svg width="24" height="21" viewBox="0 0 24 21" fill="none" xmlns="http://www.w3.org/2000/svg">
<path d="M23 1.50005C22.0424 2.17552 20.9821 2.69216 19.86 3.03005C19.2577 2.33756 18.4573 1.84674 17.567 1.62397C16.6767 1.40121 15.7395 1.45724 14.8821 1.7845C14.0247 2.11176 13.2884 2.69445 12.773 3.45376C12.2575 4.21308 11.9877 5.11238 12 6.03005V7.03005C10.2426 7.07561 8.50127 6.68586 6.93101 5.89549C5.36074 5.10513 4.01032 3.93868 3 2.50005C3 2.50005 -1 11.5 8 15.5C5.94053 16.898 3.48716 17.599 1 17.5C10 22.5 21 17.5 21 6.00005C20.9991 5.7215 20.9723 5.44364 20.92 5.17005C21.9406 4.16354 22.6608 2.89276 23 1.50005Z" stroke="#111111" stroke-width="2" stroke-linecap="round" stroke-linejoin="round"/>
</svg>
